<mxfile host="app.diagrams.net" modified="2023-08-27T07:31:27.022Z" agent="Mozilla/5.0 (Macintosh; Intel Mac OS X 10_15_7) AppleWebKit/537.36 (KHTML, like Gecko) Chrome/116.0.0.0 Safari/537.36" etag="2137S3e5eXOgC6TE1jAv" version="21.6.9" type="github">
  <diagram id="3228e29e-7158-1315-38df-8450db1d8a1d" name="Page-1">
    <mxGraphModel dx="1250" dy="1064" grid="0" gridSize="10" guides="1" tooltips="1" connect="1" arrows="1" fold="1" page="1" pageScale="1" pageWidth="1200" pageHeight="450" background="#EFF1F3" math="0" shadow="0">
      <root>
        <mxCell id="0" />
        <mxCell id="1" parent="0" />
        <mxCell id="nzwpzUQgBmsU5mZzszNc-6" value="&lt;div style=&quot;font-family: Menlo, Monaco, &amp;quot;Courier New&amp;quot;, monospace; line-height: 24px;&quot;&gt;&lt;div style=&quot;&quot;&gt;&lt;font color=&quot;#333333&quot; style=&quot;font-size: 30px;&quot;&gt;tag&lt;/font&gt;&lt;/div&gt;&lt;/div&gt;" style="rounded=1;whiteSpace=wrap;html=1;strokeWidth=5;fontSize=30;strokeColor=none;fillColor=#9AC7BF;align=center;" parent="1" vertex="1">
          <mxGeometry x="256" y="713" width="106" height="74" as="geometry" />
        </mxCell>
        <mxCell id="nzwpzUQgBmsU5mZzszNc-7" value="&lt;div style=&quot;font-family: Menlo, Monaco, &amp;quot;Courier New&amp;quot;, monospace; line-height: 24px;&quot;&gt;&lt;div style=&quot;&quot;&gt;&lt;font color=&quot;#333333&quot; style=&quot;font-size: 30px;&quot;&gt;value&lt;/font&gt;&lt;/div&gt;&lt;/div&gt;" style="rounded=1;whiteSpace=wrap;html=1;strokeWidth=5;fontSize=30;strokeColor=none;fillColor=#FDD276;align=center;" parent="1" vertex="1">
          <mxGeometry x="433" y="713" width="416" height="74" as="geometry" />
        </mxCell>
        <mxCell id="nzwpzUQgBmsU5mZzszNc-8" value="&lt;div style=&quot;font-family: Menlo, Monaco, &amp;quot;Courier New&amp;quot;, monospace; line-height: 24px;&quot;&gt;&lt;div style=&quot;&quot;&gt;&lt;font color=&quot;#333333&quot; style=&quot;font-size: 30px;&quot;&gt;tag&lt;/font&gt;&lt;/div&gt;&lt;/div&gt;" style="rounded=1;whiteSpace=wrap;html=1;strokeWidth=5;fontSize=30;strokeColor=none;fillColor=#9AC7BF;align=center;" parent="1" vertex="1">
          <mxGeometry x="848.0000000000001" y="713" width="109.36" height="74" as="geometry" />
        </mxCell>
        <mxCell id="nzwpzUQgBmsU5mZzszNc-9" value="&lt;div style=&quot;font-family: Menlo, Monaco, &amp;quot;Courier New&amp;quot;, monospace; line-height: 24px;&quot;&gt;&lt;div style=&quot;&quot;&gt;&lt;font color=&quot;#333333&quot; style=&quot;font-size: 30px;&quot;&gt;value&lt;/font&gt;&lt;/div&gt;&lt;/div&gt;" style="rounded=1;whiteSpace=wrap;html=1;strokeWidth=5;fontSize=30;strokeColor=none;fillColor=#FDD276;align=center;" parent="1" vertex="1">
          <mxGeometry x="957.36" y="713" width="127.64" height="74" as="geometry" />
        </mxCell>
        <mxCell id="hhmZNT4cyZmR0nEcOgbV-8" value="&lt;div style=&quot;font-family: Menlo, Monaco, &amp;quot;Courier New&amp;quot;, monospace; line-height: 24px;&quot;&gt;&lt;div style=&quot;&quot;&gt;&lt;font color=&quot;#333333&quot; style=&quot;font-size: 30px;&quot;&gt;len&lt;/font&gt;&lt;/div&gt;&lt;/div&gt;" style="rounded=1;whiteSpace=wrap;html=1;strokeWidth=5;fontSize=30;strokeColor=none;fillColor=#F19C99;align=center;" parent="1" vertex="1">
          <mxGeometry x="361" y="713" width="73" height="74" as="geometry" />
        </mxCell>
        <mxCell id="U-DJsKMkMCvAjCsMOjJg-1" value="&lt;font style=&quot;font-size: 39px;&quot;&gt;&lt;span style=&quot;&quot;&gt;&lt;font style=&quot;font-size: 39px;&quot; color=&quot;#4a919b&quot;&gt;1010&lt;/font&gt;&lt;font style=&quot;font-size: 39px;&quot; color=&quot;#5a6eab&quot;&gt; &lt;/font&gt;&lt;font style=&quot;font-size: 39px;&quot; color=&quot;#f19c99&quot;&gt;11&lt;/font&gt;&lt;font style=&quot;font-size: 39px;&quot; color=&quot;#5a6eab&quot;&gt; &lt;/font&gt;&lt;font style=&quot;font-size: 39px;&quot; color=&quot;#c89932&quot;&gt;110010 101110 110101&lt;/font&gt;&lt;font style=&quot;font-size: 39px;&quot; color=&quot;#5a6eab&quot;&gt; &lt;/font&gt;&lt;font style=&quot;font-size: 39px;&quot; color=&quot;#4a919b&quot;&gt;11000&lt;/font&gt;&lt;font style=&quot;font-size: 39px;&quot; color=&quot;#5a6eab&quot;&gt; &lt;/font&gt;&lt;font style=&quot;font-size: 39px;&quot; color=&quot;#c89932&quot;&gt;10010&lt;/font&gt;&lt;font style=&quot;font-size: 39px;&quot; color=&quot;#5a6eab&quot;&gt;&amp;nbsp;&lt;/font&gt;&lt;/span&gt;&lt;/font&gt;" style="text;html=1;strokeColor=none;fillColor=none;align=center;verticalAlign=middle;whiteSpace=wrap;rounded=0;" vertex="1" parent="1">
          <mxGeometry x="250" y="638" width="861" height="50" as="geometry" />
        </mxCell>
        <mxCell id="U-DJsKMkMCvAjCsMOjJg-2" value="&lt;div style=&quot;&quot;&gt;&lt;font style=&quot;font-size: 39px; background-color: initial;&quot; color=&quot;#4a919b&quot;&gt;10&amp;nbsp; &amp;nbsp; &amp;nbsp;&lt;/font&gt;&lt;font style=&quot;font-size: 39px; background-color: initial;&quot; color=&quot;#f19c99&quot;&gt;3&lt;/font&gt;&lt;font style=&quot;font-size: 39px; background-color: initial;&quot; color=&quot;#4a919b&quot;&gt;&amp;nbsp; &amp;nbsp; &amp;nbsp;&amp;nbsp;&lt;/font&gt;&lt;font style=&quot;font-size: 39px; background-color: initial;&quot; color=&quot;#c89932&quot;&gt;50&amp;nbsp; &amp;nbsp; &amp;nbsp; &amp;nbsp; 46&amp;nbsp; &amp;nbsp; &amp;nbsp; &amp;nbsp; 53&lt;/font&gt;&lt;font style=&quot;font-size: 39px; background-color: initial;&quot; color=&quot;#4a919b&quot;&gt;&amp;nbsp; &amp;nbsp; &amp;nbsp; &amp;nbsp; &amp;nbsp;24&amp;nbsp; &amp;nbsp; &amp;nbsp; &amp;nbsp;&lt;/font&gt;&lt;font style=&quot;font-size: 39px; background-color: initial;&quot; color=&quot;#c89932&quot;&gt;18&lt;/font&gt;&lt;/div&gt;" style="text;html=1;strokeColor=none;fillColor=none;align=left;verticalAlign=middle;whiteSpace=wrap;rounded=0;" vertex="1" parent="1">
          <mxGeometry x="290" y="563" width="788" height="50" as="geometry" />
        </mxCell>
        <mxCell id="U-DJsKMkMCvAjCsMOjJg-4" value="&lt;font color=&quot;#666666&quot; size=&quot;1&quot; style=&quot;&quot;&gt;&lt;b style=&quot;font-size: 38px;&quot;&gt;十进制：&lt;/b&gt;&lt;/font&gt;" style="text;html=1;strokeColor=none;fillColor=none;align=center;verticalAlign=middle;whiteSpace=wrap;rounded=0;" vertex="1" parent="1">
          <mxGeometry x="89" y="573" width="154" height="30" as="geometry" />
        </mxCell>
        <mxCell id="U-DJsKMkMCvAjCsMOjJg-5" value="&lt;font color=&quot;#666666&quot; size=&quot;1&quot; style=&quot;&quot;&gt;&lt;b style=&quot;font-size: 38px;&quot;&gt;二进制：&lt;/b&gt;&lt;/font&gt;" style="text;html=1;strokeColor=none;fillColor=none;align=center;verticalAlign=middle;whiteSpace=wrap;rounded=0;" vertex="1" parent="1">
          <mxGeometry x="89" y="648" width="154" height="30" as="geometry" />
        </mxCell>
        <mxCell id="U-DJsKMkMCvAjCsMOjJg-6" value="&lt;font color=&quot;#666666&quot; size=&quot;1&quot; style=&quot;&quot;&gt;&lt;b style=&quot;font-size: 38px;&quot;&gt;格式：&lt;/b&gt;&lt;/font&gt;" style="text;html=1;strokeColor=none;fillColor=none;align=center;verticalAlign=middle;whiteSpace=wrap;rounded=0;" vertex="1" parent="1">
          <mxGeometry x="105" y="735" width="154" height="30" as="geometry" />
        </mxCell>
      </root>
    </mxGraphModel>
  </diagram>
</mxfile>
